<svg id="图层_1" data-name="图层 1" xmlns="http://www.w3.org/2000/svg" width="2729" height="1080" viewBox="0 0 2729 1080"><defs><style>.cls-1{fill:#fff;}.cls-2{fill:#f5f7f9;}</style></defs><title>首页加载</title><rect class="cls-1" x="1979" y="145.24" width="750" height="400"/><circle class="cls-2" cx="385" cy="54" r="24"/><circle class="cls-2" cx="485" cy="54" r="24"/><circle class="cls-2" cx="585" cy="54" r="24"/><circle class="cls-2" cx="685" cy="54" r="24"/><circle class="cls-2" cx="785" cy="54" r="24"/><rect class="cls-2" width="320" height="110"/><rect class="cls-2" x="1756" y="40" width="120" height="26"/><rect class="cls-2" x="1710" y="40" width="26" height="26"/><circle class="cls-2" cx="73" cy="175" r="12"/><rect class="cls-2" x="105" y="162" width="120" height="26"/><circle class="cls-2" cx="73" cy="255" r="12"/><rect class="cls-2" x="105" y="242" width="120" height="26"/><circle class="cls-2" cx="73" cy="335" r="12"/><rect class="cls-2" x="105" y="322" width="120" height="26"/><circle class="cls-2" cx="73" cy="415" r="12"/><rect class="cls-2" x="105" y="402" width="120" height="26"/><circle class="cls-2" cx="73" cy="495" r="12"/><rect class="cls-2" x="105" y="482" width="120" height="26"/><circle class="cls-2" cx="73" cy="575" r="12"/><rect class="cls-2" x="105" y="562" width="120" height="26"/><rect class="cls-2" x="1545" y="792" width="24" height="24"/><rect class="cls-2" x="1495" y="792" width="24" height="24"/><rect class="cls-2" x="675" y="321.33" width="24" height="24"/><rect class="cls-2" x="1445" y="792" width="24" height="24"/><rect class="cls-2" x="675" y="792" width="24" height="24"/><rect class="cls-2" x="725" y="321.33" width="24" height="24"/><rect class="cls-2" x="775" y="321.33" width="24" height="24"/><rect class="cls-2" x="1445" y="321.33" width="24" height="24"/><rect class="cls-2" x="725" y="792" width="24" height="24"/><path class="cls-2" d="M320,110v970H1920V110Zm790,927H360V568.24h750Zm0-488.76H360v-400h750ZM1880,1037H1130V568.24h750Zm0-488.76H1130v-400h750Z"/><rect class="cls-2" x="775" y="792" width="24" height="24"/><rect class="cls-2" x="1545" y="321.33" width="24" height="24"/><rect class="cls-2" x="1495" y="321.33" width="24" height="24"/><rect class="cls-2" x="2310" y="317" width="24" height="24"/><rect class="cls-2" x="2360" y="317" width="24" height="24"/><rect class="cls-2" x="2410" y="317" width="24" height="24"/></svg>